<?xml version="1.0" encoding="utf-8"?>
<!-- Generator: Adobe Illustrator 16.0.0, SVG Export Plug-In . SVG Version: 6.00 Build 0)  -->
<!DOCTYPE svg PUBLIC "-//W3C//DTD SVG 1.1//EN" "http://www.w3.org/Graphics/SVG/1.1/DTD/svg11.dtd">
<svg version="1.1" id="Capa_1" xmlns="http://www.w3.org/2000/svg" xmlns:xlink="http://www.w3.org/1999/xlink" x="0px" y="0px"
	 width="99.012px" height="99.012px" viewBox="0 0 99.012 99.012" enable-background="new 0 0 99.012 99.012" xml:space="preserve">
<g>
	<linearGradient id="SVGID_1_" gradientUnits="userSpaceOnUse" x1="7.8254" y1="49.5061" x2="91.1868" y2="49.5061">
		<stop  offset="0" style="stop-color:#0667F4"/>
		<stop  offset="1" style="stop-color:#80ADED"/>
	</linearGradient>
	<path fill="url(#SVGID_1_)" d="M79.681,13.321H19.33L7.825,27.759v3.972l41.681,53.961l2.086-2.618l0.061,0.044l0.127-0.282
		L90.53,32.574l0.657-0.831v-3.985L79.681,13.321z M81.765,23.883l3.09,3.878h-6.178L81.765,23.883z M77.826,18.939l0.772,0.97
		l-5.507,6.913l-6.279-7.881h11.014V18.939z M67.51,27.759H54.98l6.266-7.864L67.51,27.759z M55.677,18.939L49.494,26.7
		l-6.184-7.762H55.677z M44.008,27.759H31.447l6.281-7.881L44.008,27.759z M21.185,18.939h10.959l-6.019,7.555l-5.479-6.879
		L21.185,18.939z M17.48,23.587l3.323,4.172h-6.646L17.48,23.587z M14.156,33.378h10.646l14.367,31.393L14.156,33.378z
		 M47.267,71.185L29.964,33.376h17.303V71.185z M51.744,71.637V33.378h17.51L51.744,71.637z M60.321,64.179l14.096-30.803H84.87
		L60.321,64.179z"/>
</g>
</svg>
