<?xml version="1.0" encoding="UTF-8" standalone="no"?>
<svg width="90px" height="90px" viewBox="0 0 90 90" version="1.1" xmlns="http://www.w3.org/2000/svg" xmlns:xlink="http://www.w3.org/1999/xlink">
    <!-- Generator: Sketch 3.8.3 (29802) - http://www.bohemiancoding.com/sketch -->
    <title>Artboard 1@3x</title>
    <desc>Created with Sketch.</desc>
    <defs>
        <linearGradient x1="96.0185023%" y1="-9.41840278%" x2="9.21849085%" y2="86.8644593%" id="linearGradient-1">
            <stop stop-color="#C2E59C" offset="0%"></stop>
            <stop stop-color="#64B3F4" offset="100%"></stop>
        </linearGradient>
    </defs>
    <g id="Page-1" stroke="none" stroke-width="1" fill="none" fill-rule="evenodd">
        <g id="Artboard-1" fill="url(#linearGradient-1)">
            <path d="M73.5616514,14 L44.8093537,14 L16.0570559,14 L6,32.2846389 L44.8093537,77 L83.6187073,32.2846389 L73.5616514,14 L73.5616514,14 Z M70.9164059,18.924907 L76.8076658,29.6370648 L66.2204741,29.6370648 L70.9164059,18.924907 L70.9164059,18.924907 Z M65.8968041,18.6904985 L61.5990563,28.4983983 L50.8574033,18.6904985 L65.8968041,18.6904985 L65.8968041,18.6904985 Z M55.8878718,29.6370648 L44.8093537,29.6370648 L33.7308356,29.6370648 L44.8093537,19.5210187 L55.8878718,29.6370648 L55.8878718,29.6370648 Z M38.761304,18.6904985 L28.0204273,28.4983983 L23.7219033,18.6904985 L38.761304,18.6904985 L38.761304,18.6904985 Z M18.7023015,18.924907 L23.3982333,29.6370648 L12.8110416,29.6370648 L18.7023015,18.924907 L18.7023015,18.924907 Z M13.9854126,34.3275633 L25.4543528,34.3275633 L37.1577015,61.0276224 L13.9854126,34.3275633 L13.9854126,34.3275633 Z M30.5764113,34.3275633 L44.8093537,34.3275633 L59.0430722,34.3275633 L44.8093537,66.7977971 L30.5764113,34.3275633 L30.5764113,34.3275633 Z M52.4602297,61.0283986 L64.1635783,34.3283395 L75.6332947,34.3283395 L52.4602297,61.0283986 L52.4602297,61.0283986 Z" id="Shape"></path>
        </g>
    </g>
</svg>